<svg width="24" height="24" viewBox="0 0 24 24" fill="none" xmlns="http://www.w3.org/2000/svg">
<path fill-rule="evenodd" clip-rule="evenodd" d="M1.29305 2.75097C1.35899 2.56335 1.49674 2.4096 1.67601 2.32352C1.85529 2.23745 2.06141 2.2261 2.24905 2.29197L2.55005 2.39797C3.16705 2.61497 3.69005 2.79897 4.10305 3.00097C4.54305 3.21797 4.92105 3.48397 5.20505 3.89997C5.48705 4.31197 5.60405 4.76497 5.65705 5.26197L5.66805 5.36997H17.1201C17.9391 5.36997 18.7731 5.36997 19.4601 5.44697C19.8101 5.48597 20.1571 5.54797 20.4631 5.65597C20.7631 5.76097 21.0941 5.93397 21.3291 6.23997C21.7111 6.73597 21.7781 7.31397 21.7421 7.89997C21.7071 8.45797 21.5691 9.15197 21.4041 9.97697L21.3941 10.03L21.3921 10.034L20.8841 12.504C20.7341 13.23 20.6081 13.841 20.4451 14.324C20.2731 14.834 20.0351 15.284 19.6081 15.632C19.1811 15.979 18.6921 16.122 18.1571 16.188C17.6521 16.25 17.0271 16.25 16.2871 16.25H10.8801C9.53505 16.25 8.44505 16.25 7.58705 16.128C6.69005 16.001 5.93705 15.728 5.34405 15.102C4.79705 14.526 4.50505 13.914 4.35905 13.06C4.22205 12.26 4.20905 11.212 4.20905 9.75997V7.03797C4.20905 6.29797 4.20705 5.80297 4.16605 5.42297C4.12605 5.05997 4.05705 4.87797 3.96605 4.74597C3.87905 4.61697 3.74605 4.49597 3.44205 4.34797C3.11905 4.18997 2.68005 4.03397 2.01205 3.79897L1.75205 3.70797C1.65895 3.67543 1.57317 3.62484 1.49964 3.55911C1.42612 3.49337 1.36627 3.41378 1.32355 3.32489C1.28082 3.23599 1.25604 3.13955 1.25064 3.04107C1.24523 2.94259 1.26031 2.84401 1.29305 2.75097ZM5.70805 6.86997V9.75997C5.70805 11.249 5.72605 12.158 5.83805 12.807C5.93905 13.402 6.11205 13.732 6.43205 14.07C6.70505 14.358 7.08205 14.542 7.79705 14.643C8.53705 14.748 9.52105 14.75 10.9371 14.75H16.2411C17.0401 14.75 17.5711 14.749 17.9751 14.7C18.3571 14.653 18.5351 14.571 18.6601 14.469C18.7851 14.367 18.9001 14.209 19.0241 13.844C19.1541 13.459 19.2621 12.939 19.4241 12.156L19.9221 9.73597V9.73397C20.1001 8.84397 20.2171 8.25197 20.2441 7.80797C20.2701 7.38597 20.2041 7.23897 20.1431 7.15797C20.0897 7.11875 20.0297 7.08929 19.9661 7.07097C19.7476 7.00215 19.5222 6.95723 19.2941 6.93697C18.6991 6.87097 17.9451 6.86997 17.0891 6.86997H5.70805ZM5.25005 19.5C5.25005 20.0967 5.48711 20.669 5.90906 21.091C6.33102 21.5129 6.90332 21.75 7.50005 21.75C8.09679 21.75 8.66909 21.5129 9.09104 21.091C9.513 20.669 9.75005 20.0967 9.75005 19.5C9.75005 18.9032 9.513 18.3309 9.09104 17.909C8.66909 17.487 8.09679 17.25 7.50005 17.25C6.90332 17.25 6.33102 17.487 5.90906 17.909C5.48711 18.3309 5.25005 18.9032 5.25005 19.5ZM7.50005 20.25C7.30114 20.25 7.11037 20.171 6.96972 20.0303C6.82907 19.8896 6.75005 19.6989 6.75005 19.5C6.75005 19.3011 6.82907 19.1103 6.96972 18.9696C7.11037 18.829 7.30114 18.75 7.50005 18.75C7.69896 18.75 7.88973 18.829 8.03038 18.9696C8.17103 19.1103 8.25005 19.3011 8.25005 19.5C8.25005 19.6989 8.17103 19.8896 8.03038 20.0303C7.88973 20.171 7.69896 20.25 7.50005 20.25ZM14.2501 19.5C14.2501 19.7954 14.3083 20.088 14.4213 20.361C14.5344 20.634 14.7001 20.882 14.9091 21.091C15.118 21.2999 15.366 21.4656 15.639 21.5787C15.912 21.6918 16.2046 21.75 16.5001 21.75C16.7955 21.75 17.0881 21.6918 17.3611 21.5787C17.6341 21.4656 17.8821 21.2999 18.091 21.091C18.3 20.882 18.4657 20.634 18.5788 20.361C18.6919 20.088 18.7501 19.7954 18.7501 19.5C18.7501 18.9032 18.513 18.3309 18.091 17.909C17.6691 17.487 17.0968 17.25 16.5001 17.25C15.9033 17.25 15.331 17.487 14.9091 17.909C14.4871 18.3309 14.2501 18.9032 14.2501 19.5ZM16.5001 20.25C16.3011 20.25 16.1104 20.171 15.9697 20.0303C15.8291 19.8896 15.7501 19.6989 15.7501 19.5C15.7501 19.3011 15.8291 19.1103 15.9697 18.9696C16.1104 18.829 16.3011 18.75 16.5001 18.75C16.699 18.75 16.8897 18.829 17.0304 18.9696C17.171 19.1103 17.2501 19.3011 17.2501 19.5C17.2501 19.6989 17.171 19.8896 17.0304 20.0303C16.8897 20.171 16.699 20.25 16.5001 20.25Z" fill="black"/>
</svg>
