<svg width="25" height="24" viewBox="0 0 25 24" fill="none" xmlns="http://www.w3.org/2000/svg">
<path fill-rule="evenodd" clip-rule="evenodd" d="M10.4444 3.25H14.5564C16.3944 3.25 17.8504 3.25 18.9894 3.403C20.1614 3.561 21.1104 3.893 21.8594 4.641C22.6074 5.39 22.9394 6.339 23.0974 7.511C23.1874 8.184 23.2244 8.967 23.2394 9.874C23.2524 9.95001 23.2538 10.0276 23.2434 10.104C23.2504 10.67 23.2504 11.282 23.2504 11.944V12.056C23.2504 13.894 23.2504 15.35 23.0974 16.489C22.9394 17.661 22.6074 18.61 21.8594 19.359C21.1104 20.107 20.1614 20.439 18.9894 20.597C17.8494 20.75 16.3944 20.75 14.5564 20.75H10.4444C8.60635 20.75 7.15035 20.75 6.01135 20.597C4.83935 20.439 3.89035 20.107 3.14135 19.359C2.39335 18.61 2.06135 17.661 1.90335 16.489C1.75035 15.349 1.75035 13.894 1.75035 12.056V11.944C1.75035 11.282 1.75035 10.67 1.75735 10.104C1.74663 10.0276 1.74764 9.95007 1.76035 9.874C1.77635 8.967 1.81335 8.184 1.90335 7.511C2.06135 6.339 2.39335 5.39 3.14135 4.641C3.89035 3.893 4.83935 3.561 6.01135 3.403C7.15135 3.25 8.60635 3.25 10.4444 3.25ZM3.25235 10.75C3.25035 11.138 3.25035 11.554 3.25035 12C3.25035 13.907 3.25235 15.262 3.39035 16.29C3.52535 17.295 3.77935 17.875 4.20235 18.298C4.62535 18.721 5.20535 18.975 6.21135 19.11C7.23935 19.248 8.59335 19.25 10.5004 19.25H14.5004C16.4074 19.25 17.7624 19.248 18.7904 19.11C19.7954 18.975 20.3754 18.721 20.7984 18.298C21.2214 17.875 21.4754 17.295 21.6104 16.289C21.7484 15.261 21.7504 13.907 21.7504 12C21.7504 11.554 21.7504 11.138 21.7484 10.75H3.25235ZM21.7244 9.25H3.27635C3.29635 8.663 3.33035 8.156 3.39035 7.71C3.52535 6.705 3.77935 6.125 4.20235 5.702C4.62535 5.279 5.20535 5.025 6.21135 4.89C7.23935 4.752 8.59335 4.75 10.5004 4.75H14.5004C16.4074 4.75 17.7624 4.752 18.7904 4.89C19.7954 5.025 20.3754 5.279 20.7984 5.702C21.2214 6.125 21.4754 6.705 21.6104 7.711C21.6704 8.156 21.7044 8.663 21.7244 9.25ZM5.75035 16C5.75035 15.8011 5.82937 15.6103 5.97002 15.4697C6.11067 15.329 6.30144 15.25 6.50035 15.25H10.5004C10.6993 15.25 10.89 15.329 11.0307 15.4697C11.1713 15.6103 11.2504 15.8011 11.2504 16C11.2504 16.1989 11.1713 16.3897 11.0307 16.5303C10.89 16.671 10.6993 16.75 10.5004 16.75H6.50035C6.30144 16.75 6.11067 16.671 5.97002 16.5303C5.82937 16.3897 5.75035 16.1989 5.75035 16ZM12.2504 16C12.2504 15.8011 12.3294 15.6103 12.47 15.4697C12.6107 15.329 12.8014 15.25 13.0004 15.25H14.5004C14.6993 15.25 14.89 15.329 15.0307 15.4697C15.1713 15.6103 15.2504 15.8011 15.2504 16C15.2504 16.1989 15.1713 16.3897 15.0307 16.5303C14.89 16.671 14.6993 16.75 14.5004 16.75H13.0004C12.8014 16.75 12.6107 16.671 12.47 16.5303C12.3294 16.3897 12.2504 16.1989 12.2504 16Z" fill="#FE8686"/>
</svg>
