<svg width="25" height="24" viewBox="0 0 25 24" fill="none" xmlns="http://www.w3.org/2000/svg">
<g clip-path="url(#clip0_259_1283)">
<path fill-rule="evenodd" clip-rule="evenodd" d="M10.9998 2C9.64436 2.00012 8.30863 2.32436 7.10402 2.94569C5.89941 3.56702 4.86086 4.46742 4.075 5.57175C3.28914 6.67609 2.77878 7.95235 2.58647 9.29404C2.39417 10.6357 2.52551 12.004 2.96954 13.2846C3.41357 14.5652 4.15741 15.7211 5.139 16.6557C6.12059 17.5904 7.31147 18.2768 8.61228 18.6576C9.91309 19.0384 11.2861 19.1026 12.6168 18.8449C13.9475 18.5872 15.1972 18.015 16.2618 17.176L19.9138 20.828C20.1024 21.0102 20.355 21.111 20.6172 21.1087C20.8794 21.1064 21.1302 21.0012 21.3156 20.8158C21.501 20.6304 21.6062 20.3796 21.6084 20.1174C21.6107 19.8552 21.5099 19.6026 21.3278 19.414L17.6758 15.762C18.6638 14.5086 19.2789 13.0024 19.4509 11.4157C19.6228 9.82905 19.3446 8.22602 18.648 6.79009C17.9514 5.35417 16.8646 4.14336 15.5121 3.29623C14.1595 2.44911 12.5957 1.99989 10.9998 2ZM4.49977 10.5C4.49977 8.77609 5.18458 7.12279 6.40357 5.90381C7.62256 4.68482 9.27586 4 10.9998 4C12.7237 4 14.377 4.68482 15.596 5.90381C16.8149 7.12279 17.4998 8.77609 17.4998 10.5C17.4998 12.2239 16.8149 13.8772 15.596 15.0962C14.377 16.3152 12.7237 17 10.9998 17C9.27586 17 7.62256 16.3152 6.40357 15.0962C5.18458 13.8772 4.49977 12.2239 4.49977 10.5Z" fill="black"/>
</g>
<defs>
<clipPath id="clip0_259_1283">
<rect width="24" height="24" fill="white" transform="translate(0.5)"/>
</clipPath>
</defs>
</svg>
