<svg width="44" height="44" viewBox="0 0 44 44" fill="none" xmlns="http://www.w3.org/2000/svg">
<path fill-rule="evenodd" clip-rule="evenodd" d="M11.5 13.4249V19.7197H17.7947V13.4249H11.5ZM11 11.9249C10.4477 11.9249 10 12.3726 10 12.9249V20.2197C10 20.772 10.4477 21.2197 11 21.2197H18.2947C18.847 21.2197 19.2947 20.7719 19.2947 20.2197V12.9249C19.2947 12.3726 18.847 11.9249 18.2947 11.9249H11Z" fill="white"/>
<path fill-rule="evenodd" clip-rule="evenodd" d="M22.9763 16.5724L27.4274 21.0234L31.8784 16.5724L27.4274 12.1213L22.9763 16.5724ZM21.5621 15.8653C21.1716 16.2558 21.1716 16.889 21.5621 17.2795L26.7202 22.4377C27.1108 22.8282 27.7439 22.8282 28.1345 22.4377L33.2926 17.2795C33.6831 16.889 33.6831 16.2558 33.2926 15.8653L28.1345 10.7071C27.7439 10.3166 27.1108 10.3166 26.7202 10.7071L21.5621 15.8653Z" fill="white"/>
<path fill-rule="evenodd" clip-rule="evenodd" d="M11.5 26.7861V33.0809H17.7947V26.7861H11.5ZM11 25.2861C10.4477 25.2861 10 25.7338 10 26.2861V33.5809C10 34.1332 10.4477 34.5809 11 34.5809H18.2947C18.847 34.5809 19.2947 34.1332 19.2947 33.5809V26.2861C19.2947 25.7338 18.847 25.2861 18.2947 25.2861H11Z" fill="white"/>
<path fill-rule="evenodd" clip-rule="evenodd" d="M24.2803 26.7861V33.0809H30.575V26.7861H24.2803ZM23.7803 25.2861C23.228 25.2861 22.7803 25.7338 22.7803 26.2861V33.5809C22.7803 34.1332 23.228 34.5809 23.7803 34.5809H31.075C31.6273 34.5809 32.075 34.1332 32.075 33.5809V26.2861C32.075 25.7338 31.6273 25.2861 31.075 25.2861H23.7803Z" fill="white"/>
</svg>
