<svg width="24" height="25" viewBox="0 0 24 25" fill="none" xmlns="http://www.w3.org/2000/svg">
<g id="icon-viber">
<path id="Vector" d="M7.96509 6.63071C7.77924 6.60366 7.58973 6.64107 7.42809 6.73671H7.41409C7.03909 6.95671 6.70109 7.23371 6.41309 7.55971C6.17309 7.83671 6.04309 8.11671 6.00909 8.38671C5.98909 8.54671 6.00309 8.70871 6.05009 8.86171L6.06809 8.87171C6.33809 9.66471 6.69009 10.4277 7.12009 11.1457C7.67454 12.1542 8.35685 13.0869 9.15009 13.9207L9.17409 13.9547L9.21209 13.9827L9.23509 14.0097L9.26309 14.0337C10.0998 14.8293 11.0347 15.5149 12.0451 16.0737C13.2001 16.7027 13.9011 16.9997 14.3221 17.1237V17.1297C14.4451 17.1677 14.5571 17.1847 14.6701 17.1847C15.0286 17.1582 15.368 17.0125 15.6341 16.7707C15.9591 16.4827 16.2341 16.1437 16.4481 15.7667V15.7597C16.6491 15.3797 16.5811 15.0217 16.2911 14.7787C15.7086 14.2697 15.0787 13.8177 14.4101 13.4287C13.9621 13.1857 13.5071 13.3327 13.3231 13.5787L12.9301 14.0747C12.7281 14.3207 12.3621 14.2867 12.3621 14.2867L12.3521 14.2927C9.62109 13.5957 8.89209 10.8307 8.89209 10.8307C8.89209 10.8307 8.85809 10.4547 9.11109 10.2627L9.60309 9.86671C9.83909 9.67471 10.0031 9.22071 9.75009 8.77271C9.3637 8.10347 8.91253 7.47379 8.40309 6.89271C8.29198 6.75596 8.13616 6.66282 7.96309 6.62971L7.96509 6.63071ZM12.5801 5.42871C12.4475 5.42871 12.3203 5.48139 12.2265 5.57516C12.1328 5.66893 12.0801 5.7961 12.0801 5.92871C12.0801 6.06132 12.1328 6.1885 12.2265 6.28226C12.3203 6.37603 12.4475 6.42871 12.5801 6.42871C13.8441 6.42871 14.8941 6.84171 15.7251 7.63371C16.1521 8.06671 16.4851 8.57971 16.7031 9.14171C16.9221 9.70471 17.0221 10.3057 16.9961 10.9077C16.9905 11.0403 17.0379 11.1697 17.1277 11.2674C17.2175 11.3651 17.3425 11.4231 17.4751 11.4287C17.6077 11.4343 17.7371 11.3869 17.8348 11.2971C17.9325 11.2073 17.9905 11.0823 17.9961 10.9497C18.0271 10.2092 17.9042 9.4703 17.6351 8.77971C17.3648 8.08585 16.955 7.45483 16.4311 6.92571L16.4211 6.91571C15.3901 5.93071 14.0861 5.42871 12.5801 5.42871Z" fill="white"/>
<path id="Vector_2" d="M12.5449 7.07278C12.4123 7.07278 12.2851 7.12546 12.1914 7.21922C12.0976 7.31299 12.0449 7.44017 12.0449 7.57278C12.0449 7.70539 12.0976 7.83256 12.1914 7.92633C12.2851 8.0201 12.4123 8.07278 12.5449 8.07278H12.5619C13.4739 8.13778 14.1379 8.44178 14.6029 8.94078C15.0799 9.45478 15.3269 10.0938 15.3079 10.8838C15.3049 11.0164 15.3546 11.1448 15.4462 11.2407C15.5378 11.3366 15.6638 11.3922 15.7964 11.3953C15.929 11.3983 16.0574 11.3486 16.1533 11.257C16.2493 11.1654 16.3049 11.0394 16.3079 10.9068C16.3319 9.86978 15.9979 8.97478 15.3359 8.26078V8.25878C14.6589 7.53278 13.7299 7.14878 12.6119 7.07378L12.5949 7.07178L12.5449 7.07278Z" fill="white"/>
<path id="Vector_3" d="M12.5259 8.74754C12.459 8.74164 12.3915 8.74928 12.3277 8.77C12.2638 8.79073 12.2047 8.82412 12.154 8.86818C12.1033 8.91224 12.062 8.96606 12.0325 9.02644C12.0031 9.08681 11.9861 9.15251 11.9826 9.21959C11.9791 9.28667 11.9892 9.35377 12.0122 9.41688C12.0352 9.47999 12.0707 9.53782 12.1165 9.58691C12.1624 9.636 12.2177 9.67534 12.2791 9.7026C12.3405 9.72985 12.4067 9.74446 12.4739 9.74554C12.8919 9.76754 13.1589 9.89354 13.3269 10.0625C13.4959 10.2325 13.6219 10.5055 13.6449 10.9325C13.6461 10.9996 13.6609 11.0658 13.6882 11.1271C13.7156 11.1884 13.755 11.2435 13.8041 11.2892C13.8533 11.335 13.9111 11.3703 13.9742 11.3932C14.0372 11.4161 14.1043 11.4261 14.1713 11.4225C14.2383 11.419 14.3039 11.402 14.3642 11.3725C14.4245 11.3431 14.4783 11.3018 14.5223 11.2511C14.5663 11.2004 14.5997 11.1414 14.6204 11.0776C14.6411 11.0137 14.6487 10.9464 14.6429 10.8795C14.6109 10.2795 14.4229 9.74954 14.0379 9.35954C13.6509 8.96954 13.1239 8.77954 12.5259 8.74754Z" fill="white"/>
</g>
</svg>
