<svg width="24" height="25" viewBox="0 0 24 25" fill="none" xmlns="http://www.w3.org/2000/svg">
<path d="M9.06 4.85986H14.94C17.18 4.85986 19 6.67986 19 8.91986V14.7999C19 15.8766 18.5723 16.9093 17.8109 17.6707C17.0495 18.4321 16.0168 18.8599 14.94 18.8599H9.06C6.82 18.8599 5 17.0399 5 14.7999V8.91986C5 7.84308 5.42775 6.81041 6.18915 6.04901C6.95054 5.28761 7.98322 4.85986 9.06 4.85986ZM8.92 6.25986C8.25165 6.25986 7.61068 6.52536 7.13809 6.99795C6.6655 7.47055 6.4 8.11152 6.4 8.77986V14.9399C6.4 16.3329 7.527 17.4599 8.92 17.4599H15.08C15.7483 17.4599 16.3893 17.1944 16.8619 16.7218C17.3345 16.2492 17.6 15.6082 17.6 14.9399V8.77986C17.6 7.38686 16.473 6.25986 15.08 6.25986H8.92ZM15.675 7.30986C15.9071 7.30986 16.1296 7.40205 16.2937 7.56614C16.4578 7.73024 16.55 7.9528 16.55 8.18486C16.55 8.41693 16.4578 8.63949 16.2937 8.80358C16.1296 8.96768 15.9071 9.05986 15.675 9.05986C15.4429 9.05986 15.2204 8.96768 15.0563 8.80358C14.8922 8.63949 14.8 8.41693 14.8 8.18486C14.8 7.9528 14.8922 7.73024 15.0563 7.56614C15.2204 7.40205 15.4429 7.30986 15.675 7.30986ZM12 8.35986C12.9283 8.35986 13.8185 8.72861 14.4749 9.38499C15.1313 10.0414 15.5 10.9316 15.5 11.8599C15.5 12.7881 15.1313 13.6784 14.4749 14.3347C13.8185 14.9911 12.9283 15.3599 12 15.3599C11.0717 15.3599 10.1815 14.9911 9.52513 14.3347C8.86875 13.6784 8.5 12.7881 8.5 11.8599C8.5 10.9316 8.86875 10.0414 9.52513 9.38499C10.1815 8.72861 11.0717 8.35986 12 8.35986ZM12 9.75986C11.443 9.75986 10.9089 9.98111 10.5151 10.3749C10.1212 10.7688 9.9 11.3029 9.9 11.8599C9.9 12.4168 10.1212 12.951 10.5151 13.3448C10.9089 13.7386 11.443 13.9599 12 13.9599C12.557 13.9599 13.0911 13.7386 13.4849 13.3448C13.8788 12.951 14.1 12.4168 14.1 11.8599C14.1 11.3029 13.8788 10.7688 13.4849 10.3749C13.0911 9.98111 12.557 9.75986 12 9.75986Z" fill="white"/>
</svg>
