<svg width="24" height="24" viewBox="0 0 24 24" fill="none" xmlns="http://www.w3.org/2000/svg">
<g clip-path="url(#clip0_259_1320)">
<path fill-rule="evenodd" clip-rule="evenodd" d="M8.41054 6.45331C8.62121 6.20065 9.03154 6.37331 8.99821 6.70065L8.76288 8.99998H10.6665C10.7299 9 10.7919 9.01807 10.8453 9.05207C10.8988 9.08607 10.9414 9.13459 10.9683 9.19195C10.9952 9.24931 11.0051 9.31313 10.997 9.37595C10.9889 9.43877 10.9631 9.49798 10.9225 9.54665L7.58921 13.5466C7.37854 13.7993 6.96821 13.6266 7.00154 13.2993L7.23688 11H5.33321C5.26987 11 5.20785 10.9819 5.15441 10.9479C5.10097 10.9139 5.05832 10.8654 5.03146 10.808C5.0046 10.7507 4.99464 10.6868 5.00274 10.624C5.01084 10.5612 5.03667 10.502 5.07721 10.4533L8.41054 6.45331Z" fill="white"/>
</g>
<path d="M14 18V6C14 5.46957 13.7893 4.96086 13.4142 4.58579C13.0391 4.21071 12.5304 4 12 4H4C3.46957 4 2.96086 4.21071 2.58579 4.58579C2.21071 4.96086 2 5.46957 2 6V17C2 17.2652 2.10536 17.5196 2.29289 17.7071C2.48043 17.8946 2.73478 18 3 18H5M15 18H9M19 18H21C21.2652 18 21.5196 17.8946 21.7071 17.7071C21.8946 17.5196 22 17.2652 22 17V13.35C21.9996 13.1231 21.922 12.903 21.78 12.726L18.3 8.376C18.2065 8.25888 18.0878 8.16428 17.9528 8.0992C17.8178 8.03412 17.6699 8.00021 17.52 8H14" stroke="white" stroke-width="1.5" stroke-linecap="round" stroke-linejoin="round"/>
<path d="M17 20C18.1046 20 19 19.1046 19 18C19 16.8954 18.1046 16 17 16C15.8954 16 15 16.8954 15 18C15 19.1046 15.8954 20 17 20Z" stroke="white" stroke-width="1.5" stroke-linecap="round" stroke-linejoin="round"/>
<path d="M7 20C8.10457 20 9 19.1046 9 18C9 16.8954 8.10457 16 7 16C5.89543 16 5 16.8954 5 18C5 19.1046 5.89543 20 7 20Z" stroke="white" stroke-width="1.5" stroke-linecap="round" stroke-linejoin="round"/>
<defs>
<clipPath id="clip0_259_1320">
<rect width="8" height="8" fill="white" transform="translate(4 6)"/>
</clipPath>
</defs>
</svg>
