<svg width="16" height="17" viewBox="0 0 16 17" fill="none" xmlns="http://www.w3.org/2000/svg">
<g clip-path="url(#clip0_354_2189)">
<path fill-rule="evenodd" clip-rule="evenodd" d="M14.5595 4.32594C14.5886 4.14949 14.5698 3.96846 14.5052 3.80173C14.4405 3.63499 14.3323 3.48865 14.1919 3.37795C14.0514 3.26725 13.8838 3.19624 13.7066 3.17232C13.5294 3.1484 13.349 3.17244 13.1842 3.24194L1.7842 8.04194C0.98953 8.37661 0.948863 9.52594 1.7842 9.87261C2.61134 10.2176 3.45054 10.5329 4.3002 10.8179C5.07886 11.0753 5.9282 11.3133 6.60886 11.3806C6.79486 11.6033 7.02886 11.8179 7.26753 12.0139C7.6322 12.3139 8.07086 12.6226 8.5242 12.9186C9.4322 13.5119 10.4395 14.0793 11.1182 14.4486C11.9295 14.8886 12.9009 14.3819 13.0462 13.4973L14.5595 4.32594ZM3.0622 8.95061L13.1449 4.70528L11.7329 13.2653C11.0669 12.9033 10.1075 12.3613 9.25286 11.8026C8.85895 11.5497 8.47865 11.2762 8.11353 10.9833C8.01593 10.9036 7.92121 10.8204 7.82953 10.7339L10.4702 8.09394C10.5953 7.96894 10.6656 7.79936 10.6657 7.62251C10.6657 7.44566 10.5955 7.27604 10.4705 7.15094C10.3455 7.02585 10.1759 6.95554 9.9991 6.95547C9.82225 6.95541 9.65262 7.0256 9.52753 7.15061L6.6362 10.0419C6.14686 9.97927 5.46553 9.79794 4.71753 9.55127C4.16066 9.36577 3.6089 9.16525 3.06286 8.94994L3.0622 8.95061Z" fill="white"/>
</g>
<defs>
<clipPath id="clip0_354_2189">
<rect width="16" height="16" fill="white" transform="translate(0 0.288574)"/>
</clipPath>
</defs>
</svg>
