<svg width="45" height="44" viewBox="0 0 45 44" fill="none" xmlns="http://www.w3.org/2000/svg">
<path fill-rule="evenodd" clip-rule="evenodd" d="M22.25 12.5C19.7968 12.5 17.444 13.4746 15.7093 15.2093C13.9746 16.944 13 19.2967 13 21.75C13 23.231 13.348 24.629 13.965 25.868C14.213 26.366 14.308 26.96 14.152 27.545L13.556 29.77C13.531 29.8632 13.5309 29.9614 13.5559 30.0546C13.5808 30.1479 13.6298 30.2329 13.698 30.3012C13.7662 30.3695 13.8512 30.4187 13.9444 30.4437C14.0376 30.4688 14.1358 30.4689 14.229 30.444L16.456 29.848C17.0188 29.704 17.6148 29.7705 18.132 30.035C19.4112 30.6718 20.8211 31.0022 22.25 31C24.7033 31 27.056 30.0254 28.7907 28.2907C30.5255 26.556 31.5 24.2033 31.5 21.75C31.5 19.2967 30.5255 16.944 28.7907 15.2093C27.056 13.4746 24.7033 12.5 22.25 12.5ZM11.5 21.75C11.5 15.813 16.313 11 22.25 11C28.187 11 33 15.813 33 21.75C33 27.687 28.187 32.5 22.25 32.5C20.532 32.5 18.906 32.096 17.463 31.378C17.273 31.2768 17.0525 31.2484 16.843 31.298L14.617 31.893C13.093 32.301 11.699 30.907 12.107 29.383L12.703 27.157C12.7527 26.9475 12.7242 26.7271 12.623 26.537C11.8825 25.05 11.498 23.4112 11.5 21.75Z" fill="white"/>
<path d="M23.8308 22.8823L23.6286 23.0954C23.6286 23.0954 23.1472 23.6018 21.8339 22.2192C20.5206 20.8366 21.0019 20.3302 21.0019 20.3302L21.129 20.1957C21.4432 19.8653 21.473 19.3345 21.1988 18.9467L20.6388 18.1547C20.2993 17.6747 19.6437 17.6112 19.2548 18.0206L18.557 18.7547C18.3646 18.958 18.2357 19.2206 18.2513 19.5124C18.2913 20.2592 18.6104 21.8653 20.3899 23.7392C22.2775 25.7261 24.0486 25.8051 24.7726 25.7336C25.0019 25.711 25.201 25.5877 25.3614 25.4183L25.9926 24.7538C26.4192 24.3053 26.2992 23.5359 25.7534 23.222L24.9046 22.7331C24.5463 22.5274 24.1108 22.5877 23.8308 22.8823Z" fill="white"/>
</svg>
