<svg width="45" height="44" viewBox="0 0 45 44" fill="none" xmlns="http://www.w3.org/2000/svg">
<path fill-rule="evenodd" clip-rule="evenodd" d="M20.5 13C18.8431 13 17.5 14.3431 17.5 16C17.5 17.6569 18.8431 19 20.5 19C22.1569 19 23.5 17.6569 23.5 16C23.5 14.3431 22.1569 13 20.5 13ZM15.5 16C15.5 13.2386 17.7386 11 20.5 11C23.2614 11 25.5 13.2386 25.5 16C25.5 18.7614 23.2614 21 20.5 21C17.7386 21 15.5 18.7614 15.5 16Z" fill="white"/>
<path fill-rule="evenodd" clip-rule="evenodd" d="M15.2899 25.0657C13.9491 25.7361 13.5002 26.4776 13.5002 27C13.5002 28.1747 13.5516 28.6315 14.0865 29.0187C14.4159 29.257 15.0009 29.5125 16.0522 29.7016C17.0959 29.8893 18.5306 30 20.5002 30C22.4699 30 23.9045 29.8893 24.9482 29.7016C25.9995 29.5125 26.5845 29.257 26.9139 29.0187C27.4489 28.6315 27.5002 28.1747 27.5002 27C27.5002 26.4776 27.0513 25.7361 25.7105 25.0657C24.4292 24.425 22.5888 24 20.5002 24C18.4117 24 16.5712 24.425 15.2899 25.0657ZM14.3955 23.2768C16.0092 22.47 18.1688 22 20.5002 22C22.8317 22 24.9912 22.47 26.6049 23.2768C28.1591 24.0539 29.5002 25.3124 29.5002 27C29.5002 27.0334 29.5003 27.0674 29.5003 27.1018C29.502 28.1344 29.5043 29.6127 28.0865 30.6388C27.4159 31.1242 26.5009 31.4544 25.3022 31.67C24.0959 31.887 22.5306 32 20.5002 32C18.4699 32 16.9045 31.887 15.6982 31.67C14.4995 31.4544 13.5845 31.1242 12.9139 30.6388C11.4962 29.6127 11.4985 28.1344 11.5001 27.1018C11.5002 27.0674 11.5002 27.0334 11.5002 27C11.5002 25.3124 12.8413 24.0539 14.3955 23.2768Z" fill="white"/>
<path fill-rule="evenodd" clip-rule="evenodd" d="M25.5 13C25.5 12.4477 25.9477 12 26.5 12H33.5C34.0523 12 34.5 12.4477 34.5 13C34.5 13.5523 34.0523 14 33.5 14H26.5C25.9477 14 25.5 13.5523 25.5 13ZM26.9 18C26.9 17.4477 27.3477 17 27.9 17H33.5C34.0523 17 34.5 17.4477 34.5 18C34.5 18.5523 34.0523 19 33.5 19H27.9C27.3477 19 26.9 18.5523 26.9 18ZM28.3 23C28.3 22.4477 28.7477 22 29.3 22H33.5C34.0523 22 34.5 22.4477 34.5 23C34.5 23.5523 34.0523 24 33.5 24H29.3C28.7477 24 28.3 23.5523 28.3 23Z" fill="white"/>
</svg>
