<svg width="25" height="24" viewBox="0 0 25 24" fill="none" xmlns="http://www.w3.org/2000/svg">
<path fill-rule="evenodd" clip-rule="evenodd" d="M6.374 4.42395C4.715 5.18195 3.5 6.98595 3.5 9.13695C3.5 11.3339 4.4 13.0279 5.688 14.4799C6.751 15.6759 8.037 16.6679 9.291 17.6339C9.589 17.8639 9.885 18.0929 10.176 18.3219C10.702 18.7369 11.171 19.0999 11.624 19.3649C12.076 19.6289 12.44 19.7499 12.75 19.7499C13.06 19.7499 13.424 19.6299 13.876 19.3649C14.329 19.0999 14.798 18.7369 15.324 18.3219C15.614 18.0919 15.911 17.8639 16.209 17.6349C17.463 16.6669 18.749 15.6759 19.812 14.4799C21.101 13.0279 22 11.3339 22 9.13695C22 6.98695 20.785 5.18195 19.126 4.42395C17.514 3.68695 15.348 3.88195 13.29 6.02095C13.22 6.09353 13.1362 6.15127 13.0434 6.19071C12.9506 6.23014 12.8508 6.25047 12.75 6.25047C12.6492 6.25047 12.5494 6.23014 12.4566 6.19071C12.3638 6.15127 12.28 6.09353 12.21 6.02095C10.152 3.88195 7.986 3.68695 6.374 4.42395ZM12.75 4.45995C10.438 2.38995 7.849 2.09995 5.75 3.05895C3.536 4.07395 2 6.42595 2 9.13795C2 11.8029 3.11 13.8369 4.567 15.4769C5.733 16.7899 7.16 17.8889 8.421 18.8589C8.707 19.0789 8.984 19.2929 9.247 19.5009C9.76 19.9049 10.31 20.3349 10.867 20.6609C11.424 20.9859 12.06 21.2509 12.75 21.2509C13.44 21.2509 14.076 20.9859 14.633 20.6609C15.191 20.3349 15.74 19.9049 16.253 19.5009C16.5269 19.2851 16.8022 19.0711 17.079 18.8589C18.339 17.8889 19.767 16.7889 20.933 15.4769C22.39 13.8369 23.5 11.8029 23.5 9.13795C23.5 6.42595 21.965 4.07395 19.75 3.06095C17.651 2.10095 15.062 2.39095 12.75 4.45995Z" fill="black"/>
</svg>
