<svg width="24" height="24" viewBox="0 0 24 24" fill="none" xmlns="http://www.w3.org/2000/svg">
<path d="M17.2113 15.8828L19.7998 3.3717C19.7998 3.3717 15.2699 4.23454 15.2699 5.96021C15.2699 7.03875 16.9956 7.68588 16.3485 8.333C15.7013 8.98013 13.3285 9.62726 13.3285 11.3529C13.3285 12.4315 14.0361 13.2339 13.3285 13.9414C12.6814 14.5886 12.0343 14.2495 10.9557 13.9414C9.74778 13.5963 7.2887 13.2943 6.42586 13.51C5.56303 13.7257 4.7002 14.1571 4.7002 15.4514C4.7002 16.1632 5.13161 16.9614 6.21016 17.1771C7.2887 17.3928 8.58295 16.3142 10.3086 16.3142C12.0343 16.3142 14.1914 17.6085 15.4856 17.6085C16.7799 17.6085 17.2113 15.8828 17.2113 15.8828Z" stroke="white" stroke-width="1.5" stroke-linejoin="round"/>
<path d="M6.42609 17.177L5.13184 20.6283H19.3686L16.7801 17.177" stroke="white" stroke-width="1.5" stroke-linejoin="round"/>
</svg>
