<svg width="24" height="24" viewBox="0 0 24 24" fill="none" xmlns="http://www.w3.org/2000/svg">
<path fill-rule="evenodd" clip-rule="evenodd" d="M3.2998 5.10437V9.85018H8.04561V5.10437H3.2998ZM2.7998 3.60437C2.24752 3.60437 1.7998 4.05209 1.7998 4.60437V10.3502C1.7998 10.9025 2.24752 11.3502 2.79981 11.3502H8.54561C9.0979 11.3502 9.54561 10.9025 9.54561 10.3502V4.60437C9.54561 4.05209 9.0979 3.60437 8.54561 3.60437H2.7998Z" fill="#F55656"/>
<path fill-rule="evenodd" clip-rule="evenodd" d="M12.9665 7.47705L16.3223 10.8328L19.6781 7.47705L16.3223 4.12126L12.9665 7.47705ZM11.5523 6.76994C11.1618 7.16047 11.1618 7.79363 11.5523 8.18416L15.6152 12.2471C16.0057 12.6376 16.6389 12.6376 17.0294 12.2471L21.0923 8.18416C21.4829 7.79363 21.4829 7.16047 21.0923 6.76994L17.0294 2.70705C16.6389 2.31652 16.0057 2.31652 15.6152 2.70705L11.5523 6.76994Z" fill="#F55656"/>
<path fill-rule="evenodd" clip-rule="evenodd" d="M3.2998 16.2391V20.9849H8.04561V16.2391H3.2998ZM2.7998 14.7391C2.24752 14.7391 1.7998 15.1869 1.7998 15.7391V21.4849C1.7998 22.0372 2.24752 22.4849 2.79981 22.4849H8.54561C9.0979 22.4849 9.54561 22.0372 9.54561 21.4849V15.7391C9.54561 15.1869 9.0979 14.7391 8.54561 14.7391H2.7998Z" fill="#F55656"/>
<path fill-rule="evenodd" clip-rule="evenodd" d="M13.9512 16.2391V20.9849H18.697V16.2391H13.9512ZM13.4512 14.7391C12.8989 14.7391 12.4512 15.1869 12.4512 15.7391V21.4849C12.4512 22.0372 12.8989 22.4849 13.4512 22.4849H19.197C19.7493 22.4849 20.197 22.0372 20.197 21.4849V15.7391C20.197 15.1869 19.7493 14.7391 19.197 14.7391H13.4512Z" fill="#F55656"/>
</svg>
