<svg width="25" height="24" viewBox="0 0 25 24" fill="none" xmlns="http://www.w3.org/2000/svg">
<path d="M7.21285 10.674C7.66685 8.154 9.88485 6.25 12.5428 6.25C14.1208 6.25 15.5428 6.92 16.5328 7.99C16.5998 8.06229 16.6519 8.14707 16.6861 8.23949C16.7203 8.33191 16.736 8.43016 16.7322 8.52864C16.7285 8.62711 16.7054 8.72389 16.6642 8.81343C16.623 8.90297 16.5646 8.98353 16.4923 9.0505C16.4201 9.11747 16.3353 9.16955 16.2429 9.20376C16.1504 9.23797 16.0522 9.25365 15.9537 9.24989C15.8552 9.24613 15.7585 9.22301 15.6689 9.18185C15.5794 9.14069 15.4988 9.08229 15.4318 9.01C15.0638 8.61162 14.6171 8.29394 14.12 8.07706C13.6229 7.86017 13.0862 7.74881 12.5438 7.75C11.6743 7.747 10.8285 8.03396 10.1403 8.56552C9.45206 9.09707 8.96068 9.84288 8.74385 10.685L8.98085 10.459C9.12551 10.3279 9.31558 10.2584 9.51066 10.2653C9.70575 10.2721 9.89048 10.3547 10.0256 10.4956C10.1608 10.6365 10.2357 10.8245 10.2344 11.0197C10.2331 11.2149 10.1558 11.4019 10.0188 11.541L8.39685 13.097C8.32397 13.1668 8.23775 13.2212 8.14335 13.2569C8.04896 13.2926 7.94832 13.3089 7.84748 13.3048C7.74664 13.3007 7.64767 13.2763 7.55649 13.233C7.46531 13.1897 7.3838 13.1285 7.31685 13.053L5.93885 11.497C5.86924 11.4241 5.81505 11.3378 5.77953 11.2435C5.74401 11.1491 5.72788 11.0485 5.7321 10.9478C5.73633 10.8471 5.76082 10.7482 5.80412 10.6572C5.84742 10.5661 5.90863 10.4847 5.9841 10.4178C6.05958 10.351 6.14775 10.3 6.24336 10.268C6.33898 10.236 6.44006 10.2236 6.54057 10.2316C6.64109 10.2395 6.73897 10.2676 6.82836 10.3143C6.91775 10.3609 6.99682 10.4251 7.06085 10.503L7.21285 10.674ZM17.1488 10.696C17.2495 10.7001 17.3483 10.7244 17.4394 10.7676C17.5305 10.8107 17.6119 10.8717 17.6788 10.947L19.0608 12.502C19.1262 12.5757 19.1765 12.6615 19.2087 12.7546C19.2409 12.8477 19.2545 12.9462 19.2487 13.0445C19.2428 13.1429 19.2177 13.2391 19.1746 13.3277C19.1316 13.4163 19.0715 13.4956 18.9978 13.561C18.9242 13.6264 18.8383 13.6766 18.7453 13.7089C18.6522 13.7411 18.5536 13.7547 18.4553 13.7488C18.357 13.743 18.2607 13.7178 18.1721 13.6748C18.0835 13.6317 18.0042 13.5717 17.9388 13.498L17.7838 13.323C17.3298 15.846 15.1008 17.751 12.4338 17.751C11.6881 17.7522 10.9501 17.6002 10.2655 17.3045C9.58084 17.0088 8.96424 16.5757 8.45385 16.032C8.38246 15.961 8.32609 15.8764 8.2881 15.7832C8.25011 15.6899 8.23128 15.59 8.23272 15.4894C8.23417 15.3887 8.25587 15.2894 8.29652 15.1973C8.33717 15.1052 8.39594 15.0222 8.46934 14.9533C8.54274 14.8844 8.62926 14.831 8.72374 14.7963C8.81822 14.7615 8.91872 14.7461 9.01927 14.751C9.11982 14.756 9.21835 14.7811 9.30899 14.8249C9.39963 14.8687 9.48052 14.9303 9.54685 15.006C9.9172 15.4004 10.3647 15.7144 10.8615 15.9286C11.3583 16.1427 11.8938 16.2525 12.4348 16.251C13.3059 16.2549 14.1536 15.9689 14.8443 15.4381C15.535 14.9073 16.0295 14.1618 16.2498 13.319L16.0198 13.541C15.9488 13.6093 15.865 13.6629 15.7732 13.6988C15.6815 13.7347 15.5835 13.7522 15.485 13.7502C15.3865 13.7483 15.2893 13.727 15.199 13.6874C15.1087 13.6479 15.0271 13.591 14.9588 13.52C14.8906 13.449 14.8369 13.3652 14.801 13.2734C14.7651 13.1816 14.7477 13.0837 14.7496 12.9852C14.7516 12.8866 14.7729 12.7895 14.8124 12.6992C14.8519 12.6089 14.9088 12.5273 14.9798 12.459L16.5998 10.904C16.6725 10.8343 16.7585 10.78 16.8527 10.7442C16.9468 10.7085 17.0482 10.6921 17.1488 10.696Z" fill="#FE8686"/>
<path fill-rule="evenodd" clip-rule="evenodd" d="M12.443 1.25C10.134 1.25 8.325 1.25 6.913 1.44C5.469 1.634 4.329 2.04 3.434 2.934C2.539 3.829 2.134 4.969 1.94 6.414C1.75 7.825 1.75 9.634 1.75 11.943V12.057C1.75 14.366 1.75 16.175 1.94 17.587C2.134 19.031 2.54 20.171 3.434 21.066C4.329 21.961 5.469 22.366 6.914 22.56C8.325 22.75 10.134 22.75 12.443 22.75H12.557C14.866 22.75 16.675 22.75 18.087 22.56C19.531 22.366 20.671 21.96 21.566 21.066C22.461 20.171 22.866 19.031 23.06 17.586C23.25 16.175 23.25 14.366 23.25 12.057V11.943C23.25 9.634 23.25 7.825 23.06 6.413C22.866 4.969 22.46 3.829 21.566 2.934C20.671 2.039 19.531 1.634 18.086 1.44C16.675 1.25 14.866 1.25 12.557 1.25H12.443ZM4.495 3.995C5.065 3.425 5.835 3.098 7.114 2.926C8.414 2.752 10.122 2.75 12.5 2.75C14.878 2.75 16.586 2.752 17.886 2.926C19.165 3.098 19.936 3.426 20.506 3.995C21.075 4.565 21.402 5.335 21.574 6.614C21.748 7.914 21.75 9.622 21.75 12C21.75 14.378 21.748 16.086 21.574 17.386C21.402 18.665 21.074 19.436 20.505 20.006C19.935 20.575 19.165 20.902 17.886 21.074C16.586 21.248 14.878 21.25 12.5 21.25C10.122 21.25 8.414 21.248 7.114 21.074C5.835 20.902 5.064 20.574 4.494 20.005C3.925 19.435 3.598 18.665 3.426 17.386C3.252 16.086 3.25 14.378 3.25 12C3.25 9.622 3.252 7.914 3.426 6.614C3.598 5.335 3.926 4.565 4.495 3.995Z" fill="#FE8686"/>
</svg>
