<svg width="30" height="31" viewBox="0 0 30 31" fill="none" xmlns="http://www.w3.org/2000/svg">
<path fill-rule="evenodd" clip-rule="evenodd" d="M19.4786 2.27492C21.1186 2.82617 22.1873 4.36992 22.1873 6.39367C22.1873 7.66492 21.4648 8.83617 20.6586 9.76867C19.8298 10.7299 18.7823 11.5912 17.8648 12.2599L17.7486 12.3449C16.8586 12.9949 16.1236 13.5324 14.9998 13.5324C13.8748 13.5324 13.1423 12.9949 12.2523 12.3449L12.1348 12.2599C11.2173 11.5912 10.1698 10.7299 9.34109 9.76992C8.53734 8.83617 7.81234 7.66492 7.81234 6.39367C7.81234 4.36992 8.88109 2.82742 10.5211 2.27492C11.9211 1.80367 13.5486 2.11492 14.9998 3.17117C16.4511 2.11492 18.0798 1.80367 19.4786 2.27492ZM18.8811 4.05242C18.0661 3.77742 16.8498 3.95492 15.6348 5.07242C15.4618 5.23142 15.2354 5.31965 15.0005 5.31965C14.7655 5.31965 14.5391 5.23142 14.3661 5.07242C13.1498 3.95492 11.9348 3.77742 11.1198 4.05242C10.3373 4.31492 9.68734 5.06992 9.68734 6.39367C9.68734 6.97742 10.0436 7.71242 10.7611 8.54492C11.4561 9.35117 12.3761 10.1162 13.2398 10.7449C14.2936 11.5137 14.5436 11.6574 14.9998 11.6574C15.4561 11.6574 15.7061 11.5137 16.7611 10.7449C17.6236 10.1162 18.5436 9.35117 19.2386 8.54492C19.9573 7.71242 20.3136 6.97742 20.3136 6.39367C20.3136 5.06867 19.6623 4.31492 18.8811 4.05242ZM10.8548 18.5599C13.1873 18.1074 15.6836 18.2099 17.7048 19.4149C17.9873 19.5837 18.2548 19.7949 18.4861 20.0549C18.9561 20.5824 19.1986 21.2387 19.2098 21.8962C19.4486 21.7424 19.6886 21.5712 19.9311 21.3874L22.1911 19.6812C22.7571 19.2651 23.4411 19.0407 24.1436 19.0407C24.846 19.0407 25.5301 19.2651 26.0961 19.6812C27.1398 20.4687 27.5573 21.8849 26.8086 23.0837C26.2773 23.9362 25.4773 25.1149 24.6623 25.8699C23.8373 26.6324 22.6661 27.2737 21.7798 27.7024C20.7023 28.2224 19.5398 28.5087 18.4086 28.6924C16.0961 29.0674 13.6911 29.0087 11.4061 28.5387C10.2277 28.2962 9.02789 28.1735 7.82484 28.1724H4.99984C4.7512 28.1724 4.51275 28.0737 4.33693 27.8978C4.16112 27.722 4.06235 27.4836 4.06235 27.2349C4.06235 26.9863 4.16112 26.7478 4.33693 26.572C4.51275 26.3962 4.7512 26.2974 4.99984 26.2974H7.82484C9.15234 26.2974 10.4936 26.4349 11.7848 26.7024C13.8676 27.1298 16.0104 27.1768 18.1098 26.8412C19.1448 26.6737 20.1123 26.4249 20.9648 26.0137C21.8186 25.6012 22.7786 25.0587 23.3873 24.4937C24.0036 23.9237 24.6923 22.9349 25.2186 22.0924C25.3773 21.8374 25.3548 21.4699 24.9661 21.1762C24.7255 21.0061 24.4382 20.9148 24.1436 20.9148C23.849 20.9148 23.5617 21.0061 23.3211 21.1762L21.0623 22.8837C20.1598 23.5649 19.0498 24.2937 17.6736 24.5124C17.5294 24.5357 17.3848 24.5562 17.2398 24.5737C16.364 24.6747 15.4799 24.6831 14.6023 24.5987C14.4776 24.5901 14.3558 24.5566 14.2442 24.5002C14.1326 24.4438 14.0334 24.3656 13.9524 24.2703C13.8715 24.175 13.8104 24.0645 13.7728 23.9452C13.7352 23.826 13.7219 23.7004 13.7336 23.5759C13.7452 23.4514 13.7817 23.3305 13.8408 23.2203C13.8999 23.1101 13.9805 23.0128 14.0777 22.9342C14.175 22.8556 14.287 22.7973 14.4071 22.7626C14.5273 22.728 14.6532 22.7177 14.7773 22.7324C15.5623 22.8062 16.2648 22.7899 16.8623 22.7287L16.8998 22.7249C17.0165 22.6525 17.1156 22.5552 17.19 22.4399C17.2645 22.3245 17.3124 22.1941 17.3303 22.0581C17.3482 21.922 17.3358 21.7836 17.2937 21.6529C17.2517 21.5223 17.1812 21.4025 17.0873 21.3024C16.9877 21.1928 16.8718 21.0992 16.7436 21.0249C15.2673 20.1437 13.2948 19.9974 11.2111 20.3999C9.17578 20.8094 7.24631 21.6327 5.54234 22.8187C5.44188 22.8899 5.32837 22.9407 5.2083 22.968C5.08822 22.9954 4.96393 22.9989 4.84251 22.9782C4.7211 22.9576 4.60495 22.9132 4.50068 22.8476C4.39642 22.7821 4.30609 22.6966 4.23485 22.5962C4.1636 22.4957 4.11285 22.3822 4.08547 22.2621C4.0581 22.142 4.05464 22.0178 4.0753 21.8963C4.09596 21.7749 4.14034 21.6588 4.20589 21.5545C4.27144 21.4502 4.35688 21.3599 4.45735 21.2887C6.3794 19.9486 8.55732 19.0197 10.8548 18.5599Z" fill="white"/>
</svg>
