<svg width="24" height="24" viewBox="0 0 24 24" fill="none" xmlns="http://www.w3.org/2000/svg">
<path fill-rule="evenodd" clip-rule="evenodd" d="M9 3.75C7.20507 3.75 5.75 5.20507 5.75 7C5.75 8.79493 7.20507 10.25 9 10.25C10.7949 10.25 12.25 8.79493 12.25 7C12.25 5.20507 10.7949 3.75 9 3.75ZM4.25 7C4.25 4.37665 6.37665 2.25 9 2.25C11.6234 2.25 13.75 4.37665 13.75 7C13.75 9.62335 11.6234 11.75 9 11.75C6.37665 11.75 4.25 9.62335 4.25 7Z" fill="black"/>
<path fill-rule="evenodd" clip-rule="evenodd" d="M3.67802 15.8421C2.31052 16.5258 1.75011 17.3319 1.75011 18C1.75011 19.1572 1.78862 19.7499 2.43984 20.2212C2.81187 20.4904 3.43815 20.7552 4.50788 20.9476C5.57188 21.139 7.02289 21.25 9.00011 21.25C10.9773 21.25 12.4283 21.139 13.4923 20.9476C14.5621 20.7552 15.1884 20.4904 15.5604 20.2212C16.2116 19.7499 16.2501 19.1572 16.2501 18C16.2501 17.3319 15.6897 16.5258 14.3222 15.8421C12.9994 15.1806 11.119 14.75 9.00011 14.75C6.8812 14.75 5.00086 15.1806 3.67802 15.8421ZM3.0072 14.5004C4.57936 13.7144 6.69902 13.25 9.00011 13.25C11.3012 13.25 13.4209 13.7144 14.993 14.5004C16.5205 15.2642 17.7501 16.4581 17.7501 18C17.7501 18.0282 17.7501 18.0566 17.7502 18.0853C17.7512 19.1278 17.7525 20.4863 16.4398 21.4363C15.8119 21.8908 14.9382 22.2117 13.7579 22.4239C12.5719 22.6373 11.0229 22.75 9.00011 22.75C6.97734 22.75 5.42834 22.6373 4.24235 22.4239C3.06207 22.2117 2.18835 21.8908 1.56038 21.4363C0.247726 20.4863 0.249045 19.1278 0.250057 18.0853C0.250085 18.0566 0.250112 18.0282 0.250112 18C0.250112 16.4581 1.47971 15.2642 3.0072 14.5004Z" fill="black"/>
<path fill-rule="evenodd" clip-rule="evenodd" d="M14.25 4C14.25 3.58579 14.5858 3.25 15 3.25H22C22.4142 3.25 22.75 3.58579 22.75 4C22.75 4.41421 22.4142 4.75 22 4.75H15C14.5858 4.75 14.25 4.41421 14.25 4ZM15.65 9C15.65 8.58579 15.9858 8.25 16.4 8.25H22C22.4142 8.25 22.75 8.58579 22.75 9C22.75 9.41421 22.4142 9.75 22 9.75H16.4C15.9858 9.75 15.65 9.41421 15.65 9ZM17.05 14C17.05 13.5858 17.3858 13.25 17.8 13.25H22C22.4142 13.25 22.75 13.5858 22.75 14C22.75 14.4142 22.4142 14.75 22 14.75H17.8C17.3858 14.75 17.05 14.4142 17.05 14Z" fill="black"/>
</svg>
