<svg width="24" height="24" viewBox="0 0 24 24" fill="none" xmlns="http://www.w3.org/2000/svg">
<path d="M15.06 10.5C15.1926 10.3515 15.2608 10.1564 15.2496 9.95758C15.2383 9.75879 15.1485 9.57261 15 9.44C14.8515 9.30739 14.6564 9.23922 14.4576 9.25047C14.2588 9.26172 14.0726 9.35148 13.94 9.5L10.929 12.874L10.059 11.9C9.92606 11.7531 9.74036 11.6647 9.54248 11.6543C9.34459 11.6438 9.15062 11.7121 9.00292 11.8442C8.85523 11.9763 8.76581 12.1615 8.75422 12.3594C8.74262 12.5572 8.80978 12.7515 8.94103 12.9L10.369 14.5C10.4394 14.5788 10.5256 14.6419 10.622 14.685C10.7184 14.7282 10.8229 14.7505 10.9285 14.7505C11.0342 14.7505 11.1386 14.7282 11.235 14.685C11.3315 14.6419 11.4177 14.5788 11.488 14.5L15.06 10.5Z" fill="#FE8686"/>
<path fill-rule="evenodd" clip-rule="evenodd" d="M12 1.25C11.063 1.25 10.167 1.557 8.723 2.051L7.996 2.301C6.515 2.807 5.371 3.199 4.553 3.531C4.141 3.698 3.786 3.861 3.501 4.026C3.226 4.186 2.951 4.385 2.764 4.652C2.579 4.915 2.483 5.239 2.423 5.552C2.36 5.876 2.323 6.265 2.298 6.712C2.25 7.598 2.25 8.814 2.25 10.39V11.991C2.25 18.092 6.858 21.017 9.598 22.215L9.625 22.226C9.965 22.375 10.285 22.514 10.652 22.608C11.039 22.708 11.451 22.75 12 22.75C12.55 22.75 12.96 22.708 13.348 22.608C13.715 22.514 14.035 22.375 14.374 22.226L14.402 22.215C17.142 21.017 21.75 18.092 21.75 11.991V10.39C21.75 8.814 21.75 7.598 21.702 6.711C21.6859 6.322 21.6441 5.9345 21.577 5.551C21.517 5.239 21.421 4.915 21.237 4.651C21.049 4.385 20.774 4.186 20.499 4.026C20.16 3.83733 19.8085 3.67195 19.447 3.531C18.629 3.199 17.485 2.807 16.004 2.301L15.277 2.051C13.833 1.557 12.937 1.25 12 1.25ZM9.08 3.514C10.695 2.962 11.342 2.75 12 2.75C12.658 2.75 13.305 2.962 14.92 3.514L15.492 3.71C17.005 4.228 18.108 4.606 18.882 4.92C19.269 5.078 19.549 5.21 19.746 5.324C19.843 5.38 19.91 5.426 19.954 5.463C19.992 5.493 20.007 5.511 20.009 5.513C20.0221 5.53655 20.0328 5.56134 20.041 5.587C20.061 5.643 20.083 5.723 20.104 5.835C20.1581 6.15182 20.1915 6.47183 20.204 6.793C20.25 7.634 20.25 8.808 20.25 10.417V11.991C20.25 17.167 16.38 19.714 13.801 20.84C13.43 21.002 13.215 21.094 12.976 21.155C12.748 21.214 12.47 21.25 12 21.25C11.53 21.25 11.252 21.214 11.024 21.155C10.784 21.095 10.57 21.002 10.199 20.84C7.619 19.714 3.75 17.166 3.75 11.991V10.417C3.75 8.808 3.75 7.634 3.796 6.793C3.80849 6.47183 3.8419 6.15182 3.896 5.835C3.917 5.723 3.939 5.643 3.959 5.587C3.977 5.537 3.989 5.517 3.991 5.513C4.00768 5.4946 4.0261 5.47786 4.046 5.463C4.11149 5.41086 4.18105 5.36405 4.254 5.323C4.451 5.209 4.731 5.078 5.118 4.921C5.892 4.606 6.995 4.228 8.508 3.711L9.08 3.514Z" fill="#FE8686"/>
</svg>
