<svg width="24" height="24" viewBox="0 0 24 24" fill="none" xmlns="http://www.w3.org/2000/svg">
<g clip-path="url(#clip0_343_24)">
<path fill-rule="evenodd" clip-rule="evenodd" d="M17.834 4.62505C18.142 4.39383 18.5103 4.25648 18.8945 4.22952C19.2788 4.20255 19.6626 4.28712 20 4.47305L20.144 4.56105L21.054 5.16805C21.2653 5.30988 21.4146 5.52698 21.4715 5.7751C21.5283 6.02321 21.4884 6.28367 21.3599 6.50337C21.2313 6.72308 21.0239 6.8855 20.7797 6.95754C20.5356 7.02957 20.2732 7.00579 20.046 6.89105L19.946 6.83205L19.034 6.22505L16.431 8.17705L16.999 8.66205L17.508 9.11205L18.177 9.72505L18.367 9.90305C18.626 10.149 19.002 10.272 19.317 10.426C19.7909 10.6577 20.1955 11.0102 20.4897 11.4481C20.784 11.886 20.9576 12.3937 20.993 12.92L21 13.12V15C21 15.7653 20.7076 16.5016 20.1827 17.0583C19.6577 17.6151 18.9399 17.9502 18.176 17.995L18 18H15.83C15.6284 18.5703 15.2591 19.0664 14.7707 19.4232C14.2822 19.78 13.6974 19.9808 13.0928 19.9994C12.4882 20.018 11.8921 19.8535 11.3827 19.5274C10.8732 19.2013 10.4742 18.7289 10.238 18.172L10.17 18H2.99996V16H10.17C10.3717 15.4301 10.741 14.9343 11.2293 14.5778C11.7176 14.2213 12.3023 14.0206 12.9066 14.002C13.511 13.9834 14.1069 14.1478 14.6162 14.4736C15.1255 14.7995 15.5245 15.2716 15.761 15.828L15.828 16H18C18.2449 16 18.4813 15.9101 18.6643 15.7473C18.8474 15.5846 18.9643 15.3603 18.993 15.117L19 15V13.12C18.9998 12.9331 18.9472 12.75 18.8482 12.5915C18.7492 12.4329 18.6078 12.3053 18.44 12.223L18.002 12.011C17.64 11.832 17.289 11.638 16.992 11.355L16.537 10.932L16.237 10.659L15.897 10.356L15.524 10.031L15.124 9.69105C15.0552 9.63377 14.9862 9.57677 14.917 9.52005C13.991 8.75805 13.009 8.03705 12.247 7.66405C11.579 7.33805 10.713 7.24905 9.88896 7.20405L8.99296 7.16105L8.71496 7.14505C7.08323 7.038 5.44815 6.9903 3.81296 7.00205L3.01896 7.01205L2.98096 5.01205C4.66947 4.98161 6.35852 5.01096 8.04496 5.10005L9.83496 5.21005C10.958 5.28005 12.159 5.39605 13.125 5.86705C13.551 6.07605 14.005 6.35305 14.459 6.66305L14.799 6.90105L17.834 4.62505ZM13.014 16H12.986C12.722 16.0037 12.4702 16.1117 12.2855 16.3003C12.1008 16.4889 11.9981 16.743 12 17.007C12.0018 17.2709 12.108 17.5235 12.2953 17.7095C12.4827 17.8956 12.736 18 13 18C13.264 18 13.5173 17.8956 13.7046 17.7095C13.8919 17.5235 13.9981 17.2709 13.9999 17.007C14.0018 16.743 13.8992 16.4889 13.7144 16.3003C13.5297 16.1117 13.2779 16.0037 13.014 16Z" fill="white"/>
</g>
<defs>
<clipPath id="clip0_343_24">
<rect width="24" height="24" fill="white"/>
</clipPath>
</defs>
</svg>
