<svg width="45" height="44" viewBox="0 0 45 44" fill="none" xmlns="http://www.w3.org/2000/svg">
<path fill-rule="evenodd" clip-rule="evenodd" d="M10.5531 9.61702C10.6335 9.38611 10.8015 9.19688 11.0201 9.09094C11.2387 8.98501 11.4901 8.97104 11.7189 9.05211L12.0859 9.18257C12.8383 9.44964 13.4761 9.6761 13.9797 9.92471C14.5163 10.1918 14.9773 10.5192 15.3236 11.0311C15.6675 11.5382 15.8101 12.0957 15.8748 12.7074L15.8882 12.8403H29.8533C30.852 12.8403 31.8691 12.8403 32.7068 12.9351C33.1336 12.9831 33.5568 13.0594 33.9299 13.1923C34.2958 13.3216 34.6994 13.5345 34.986 13.9111C35.4518 14.5216 35.5335 15.2329 35.4896 15.9541C35.4469 16.6409 35.2786 17.495 35.0774 18.5104L35.0652 18.5756L35.0628 18.5806L34.4433 21.6205C34.2604 22.514 34.1067 23.266 33.908 23.8605C33.6982 24.4881 33.408 25.042 32.8873 25.4703C32.3666 25.8974 31.7703 26.0734 31.1179 26.1546C30.502 26.2309 29.7399 26.2309 28.8375 26.2309H22.2439C20.6038 26.2309 19.2746 26.2309 18.2283 26.0807C17.1345 25.9244 16.2162 25.5884 15.4931 24.818C14.826 24.1091 14.47 23.3559 14.2919 22.3048C14.1249 21.3202 14.109 20.0304 14.109 18.2433V14.8932C14.109 13.9825 14.1066 13.3733 14.0566 12.9056C14.0078 12.4588 13.9237 12.2348 13.8127 12.0724C13.7066 11.9136 13.5444 11.7647 13.1737 11.5825C12.7798 11.3881 12.2445 11.1961 11.4299 10.9068L11.1128 10.7948C10.9993 10.7548 10.8947 10.6925 10.805 10.6116C10.7154 10.5307 10.6424 10.4328 10.5903 10.3234C10.5382 10.214 10.508 10.0953 10.5014 9.97405C10.4948 9.85285 10.5132 9.73152 10.5531 9.61702ZM15.937 14.6865V18.2433C15.937 20.0759 15.9589 21.1947 16.0955 21.9934C16.2187 22.7257 16.4296 23.1319 16.8198 23.5479C17.1528 23.9023 17.6125 24.1288 18.4844 24.2531C19.3868 24.3823 20.5867 24.3848 22.3135 24.3848H28.7814C29.7557 24.3848 30.4033 24.3835 30.8959 24.3232C31.3618 24.2654 31.5788 24.1645 31.7313 24.0389C31.8837 23.9134 32.0239 23.7189 32.1751 23.2697C32.3337 22.7959 32.4654 22.1559 32.6629 21.1922L33.2702 18.2138V18.2113C33.4873 17.116 33.6299 16.3874 33.6629 15.8409C33.6946 15.3215 33.6141 15.1406 33.5397 15.0409C33.4746 14.9927 33.4015 14.9564 33.3239 14.9339C33.0574 14.8492 32.7826 14.7939 32.5044 14.7689C31.7788 14.6877 30.8594 14.6865 29.8155 14.6865H15.937ZM15.3785 30.2308C15.3785 30.9653 15.6675 31.6696 16.1821 32.1889C16.6966 32.7082 17.3945 33 18.1222 33C18.8499 33 19.5478 32.7082 20.0623 32.1889C20.5769 31.6696 20.866 30.9653 20.866 30.2308C20.866 29.4964 20.5769 28.792 20.0623 28.2727C19.5478 27.7534 18.8499 27.4616 18.1222 27.4616C17.3945 27.4616 16.6966 27.7534 16.1821 28.2727C15.6675 28.792 15.3785 29.4964 15.3785 30.2308ZM18.1222 31.1539C17.8796 31.1539 17.647 31.0566 17.4755 30.8835C17.304 30.7104 17.2076 30.4756 17.2076 30.2308C17.2076 29.986 17.304 29.7512 17.4755 29.5781C17.647 29.405 17.8796 29.3078 18.1222 29.3078C18.3648 29.3078 18.5974 29.405 18.7689 29.5781C18.9404 29.7512 19.0368 29.986 19.0368 30.2308C19.0368 30.4756 18.9404 30.7104 18.7689 30.8835C18.5974 31.0566 18.3648 31.1539 18.1222 31.1539ZM26.3535 30.2308C26.3535 30.5945 26.4245 30.9546 26.5623 31.2905C26.7002 31.6265 26.9023 31.9318 27.1571 32.1889C27.4119 32.4461 27.7144 32.65 28.0473 32.7892C28.3801 32.9284 28.7369 33 29.0972 33C29.4576 33 29.8143 32.9284 30.1472 32.7892C30.4801 32.65 30.7826 32.4461 31.0374 32.1889C31.2922 31.9318 31.4943 31.6265 31.6321 31.2905C31.77 30.9546 31.841 30.5945 31.841 30.2308C31.841 29.4964 31.5519 28.792 31.0374 28.2727C30.5228 27.7534 29.8249 27.4616 29.0972 27.4616C28.3696 27.4616 27.6717 27.7534 27.1571 28.2727C26.6426 28.792 26.3535 29.4964 26.3535 30.2308ZM29.0972 31.1539C28.8547 31.1539 28.6221 31.0566 28.4505 30.8835C28.279 30.7104 28.1827 30.4756 28.1827 30.2308C28.1827 29.986 28.279 29.7512 28.4505 29.5781C28.6221 29.405 28.8547 29.3078 29.0972 29.3078C29.3398 29.3078 29.5724 29.405 29.744 29.5781C29.9155 29.7512 30.0118 29.986 30.0118 30.2308C30.0118 30.4756 29.9155 30.7104 29.744 30.8835C29.5724 31.0566 29.3398 31.1539 29.0972 31.1539Z" fill="white"/>
<circle cx="35.5" cy="15" r="3" fill="#F70202"/>
</svg>
