<svg width="24" height="24" viewBox="0 0 24 24" fill="none" xmlns="http://www.w3.org/2000/svg">
<path d="M19.3 3.72501C19.1173 3.49234 18.8883 3.31334 18.613 3.18801C18.3377 3.06267 18.05 3.00001 17.75 3.00001H6.25C5.94933 2.99934 5.66167 3.06167 5.387 3.18701C5.11233 3.31234 4.88333 3.49167 4.7 3.72501H19.3ZM19.3 3.72501L20.55 5.25001L19.3 3.72501ZM5 7.90001H4.9V8.00001V19V19.1H5H19H19.1V19V8.00001V7.90001H19H16H15.9V8.00001V15.8382L12.0447 13.9106L12 13.8882L11.9553 13.9106L8.1 15.8382V8.00001V7.90001H8H5ZM4.77734 3.7884L4.77736 3.78841L4.77863 3.78679C4.95192 3.56623 5.16811 3.39681 5.42851 3.27798C5.69014 3.1586 5.96357 3.09937 6.24978 3.10001H6.25H17.75C18.0356 3.10001 18.3091 3.15956 18.5716 3.27902C18.8327 3.39788 19.0488 3.56698 19.2213 3.78676L19.2213 3.78677L19.2227 3.7884L20.4726 5.31333C20.6154 5.48788 20.7222 5.67762 20.7935 5.88285C20.8651 6.08868 20.9006 6.30246 20.9 6.52472V6.52501V19C20.9 19.5233 20.715 19.969 20.3422 20.3424C19.9696 20.7157 19.524 20.9006 19.0001 20.9H19H5C4.47671 20.9 4.03142 20.715 3.65871 20.3423C3.286 19.9696 3.10063 19.5239 3.1 18.9999L3.1 6.52501C3.1 6.30266 3.13586 6.08877 3.20745 5.88285C3.27882 5.67759 3.38528 5.48784 3.52742 5.3133C3.52746 5.31325 3.5275 5.31321 3.52753 5.31316L4.77734 3.7884ZM5.32381 5.93524L5.18376 6.10001H5.4H18.6H18.8162L18.6762 5.93524L17.8262 4.93524L17.7962 4.90001H17.75H6.25H6.20376L6.17381 4.93524L5.32381 5.93524ZM10 7.90001H9.9V8.00001V12.75V12.9118L10.0447 12.8394L12 11.8618L13.9553 12.8394L14.1 12.9118V12.75V8.00001V7.90001H14H10Z" fill="white" stroke="black" stroke-width="0.2"/>
</svg>
