<svg width="25" height="24" viewBox="0 0 25 24" fill="none" xmlns="http://www.w3.org/2000/svg">
<path fill-rule="evenodd" clip-rule="evenodd" d="M12.75 2.75C10.2968 2.75 7.94398 3.72455 6.20927 5.45926C4.47456 7.19397 3.50001 9.54675 3.50001 12C3.50001 13.481 3.84801 14.879 4.46501 16.118C4.71301 16.616 4.80801 17.21 4.65201 17.795L4.05601 20.02C4.03098 20.1132 4.03093 20.2114 4.05586 20.3046C4.08078 20.3979 4.12981 20.4829 4.198 20.5512C4.2662 20.6195 4.35117 20.6687 4.44438 20.6937C4.53759 20.7188 4.63575 20.7189 4.72901 20.694L6.95601 20.098C7.51879 19.954 8.11481 20.0205 8.63201 20.285C9.9112 20.9218 11.3211 21.2522 12.75 21.25C15.2033 21.25 17.556 20.2754 19.2907 18.5407C21.0255 16.806 22 14.4533 22 12C22 9.54675 21.0255 7.19397 19.2907 5.45926C17.556 3.72455 15.2033 2.75 12.75 2.75ZM2.00001 12C2.00001 6.063 6.81301 1.25 12.75 1.25C18.687 1.25 23.5 6.063 23.5 12C23.5 17.937 18.687 22.75 12.75 22.75C11.032 22.75 9.40601 22.346 7.96301 21.628C7.77295 21.5268 7.55253 21.4984 7.34301 21.548L5.11701 22.143C3.59301 22.551 2.19901 21.157 2.60701 19.633L3.20301 17.407C3.25265 17.1975 3.22421 16.9771 3.12301 16.787C2.38246 15.3 1.998 13.6612 2.00001 12Z" fill="black"/>
<path d="M14.3308 13.1323L14.1286 13.3454C14.1286 13.3454 13.6472 13.8518 12.3339 12.4692C11.0206 11.0866 11.5019 10.5802 11.5019 10.5802L11.629 10.4457C11.9432 10.1153 11.973 9.58447 11.6988 9.19671L11.1388 8.4047C10.7993 7.9247 10.1437 7.86117 9.75482 8.27058L9.05705 9.0047C8.8646 9.208 8.73571 9.47059 8.75127 9.76236C8.79127 10.5092 9.11038 12.1153 10.8899 13.9892C12.7775 15.9761 14.5486 16.0551 15.2726 15.9836C15.5019 15.961 15.701 15.8377 15.8614 15.6683L16.4926 15.0038C16.9192 14.5553 16.7992 13.7859 16.2534 13.472L15.4046 12.9831C15.0463 12.7774 14.6108 12.8377 14.3308 13.1323Z" fill="black"/>
</svg>
