<svg width="24" height="24" viewBox="0 0 24 24" fill="none" xmlns="http://www.w3.org/2000/svg">
<path fill-rule="evenodd" clip-rule="evenodd" d="M18.0896 2.54902C17.5376 2.23902 16.9496 2.20902 16.3286 2.28602C15.7386 2.36002 15.0196 2.54602 14.1566 2.77102L12.1376 3.29502C11.2746 3.52002 10.5566 3.70602 10.0076 3.92902C9.42859 4.16302 8.92858 4.47702 8.60458 5.02202C8.27858 5.57002 8.24659 6.15602 8.32759 6.76802C8.40459 7.34502 8.59759 8.04502 8.82759 8.87902L9.37059 10.843C9.60059 11.678 9.79459 12.377 10.0256 12.913C10.2706 13.483 10.5976 13.968 11.1536 14.28C11.7056 14.589 12.2936 14.62 12.9156 14.542C13.5056 14.469 14.2246 14.282 15.0876 14.057L17.1066 13.533C17.9696 13.309 18.6876 13.122 19.2366 12.899C19.8156 12.665 20.3156 12.351 20.6396 11.806C20.9656 11.258 20.9976 10.672 20.9166 10.061C20.8396 9.48402 20.6466 8.78302 20.4166 7.94902L19.8736 5.98502C19.6436 5.15102 19.4496 4.45102 19.2186 3.91502C18.9736 3.34502 18.6446 2.86002 18.0896 2.54902ZM14.4856 4.23502C15.4106 3.99502 16.0336 3.83502 16.5156 3.77502C16.9766 3.71702 17.1976 3.76802 17.3586 3.85802C17.5156 3.94602 17.6666 4.09902 17.8416 4.50802C18.0266 4.93802 18.1946 5.53702 18.4426 6.43502L18.9566 8.29802C19.2056 9.19602 19.3696 9.79602 19.4306 10.258C19.4886 10.697 19.4366 10.896 19.3506 11.039C19.2636 11.186 19.1056 11.335 18.6756 11.509C18.2276 11.69 17.6056 11.854 16.6806 12.094L14.7606 12.593C13.8356 12.833 13.2126 12.993 12.7306 13.053C12.2686 13.112 12.0486 13.061 11.8876 12.971C11.7306 12.883 11.5796 12.729 11.4046 12.321C11.2196 11.891 11.0516 11.291 10.8036 10.393L10.2896 8.53102C10.0406 7.63102 9.87659 7.03202 9.81559 6.57102C9.75759 6.13102 9.80958 5.93302 9.89558 5.78902C9.98258 5.64202 10.1406 5.49302 10.5706 5.31902C11.0186 5.13802 11.6406 4.97502 12.5656 4.73402L14.4856 4.23502Z" fill="#FE8686"/>
<path fill-rule="evenodd" clip-rule="evenodd" d="M3.20007 4.72494C3.01062 4.6785 2.81052 4.70769 2.64223 4.80633C2.47395 4.90496 2.35071 5.06529 2.29867 5.25328C2.24663 5.44128 2.26988 5.64215 2.36349 5.81329C2.4571 5.98442 2.6137 6.11236 2.80007 6.16994L4.50307 6.64294C4.92907 6.76094 5.24607 7.08294 5.35407 7.47394L7.30607 14.5369C7.23054 14.5519 7.1555 14.5692 7.08107 14.5889C5.10407 15.1019 3.89607 17.0909 4.43807 19.0559C4.97807 21.0109 7.03207 22.1379 9.00107 21.6259C10.7251 21.1789 11.8641 19.6099 11.7681 17.9139L20.1881 15.7259C20.2834 15.7012 20.3729 15.6579 20.4515 15.5985C20.5302 15.5392 20.5963 15.4649 20.6462 15.38C20.6961 15.2951 20.7288 15.2012 20.7424 15.1036C20.7561 15.0061 20.7503 14.9068 20.7256 14.8114C20.7008 14.7161 20.6575 14.6266 20.5982 14.548C20.5388 14.4694 20.4646 14.4032 20.3796 14.3533C20.2947 14.3034 20.2008 14.2707 20.1032 14.2571C20.0057 14.2435 19.9064 14.2492 19.8111 14.2739L11.3731 16.4669C11.1206 15.9845 10.7654 15.5635 10.3323 15.2334C9.89933 14.9034 9.39912 14.6725 8.86707 14.5569L6.80007 7.07394C6.67319 6.62379 6.43185 6.21419 6.09957 5.88507C5.76729 5.55594 5.35541 5.31852 4.90407 5.19594L3.20007 4.72494ZM7.45907 16.0399C8.67107 15.7259 9.88707 16.4289 10.1991 17.5589C10.5091 18.6789 9.82907 19.8619 8.62507 20.1749C7.41307 20.4899 6.19707 19.7859 5.88507 18.6559C5.57507 17.5359 6.25507 16.3529 7.45907 16.0399Z" fill="#FE8686"/>
</svg>
